<mxfile host="app.diagrams.net" modified="2023-04-18T17:17:40.289Z" agent="Mozilla/5.0 (Windows NT 10.0; Win64; x64) AppleWebKit/537.36 (KHTML, like Gecko) Chrome/112.0.0.0 Safari/537.36" etag="_QMMoy8ViJHiMoefz_9u" version="21.1.8" type="device">
  <diagram name="Página-1" id="55q-F3UpraGUBUrzHVrv">
    <mxGraphModel dx="1434" dy="796" grid="1" gridSize="10" guides="1" tooltips="1" connect="1" arrows="1" fold="1" page="1" pageScale="1" pageWidth="827" pageHeight="1169" math="0" shadow="0">
      <root>
        <mxCell id="0" />
        <mxCell id="1" parent="0" />
        <mxCell id="_vyH2A5g570IBIjJlSyy-1" value="&lt;p style=&quot;margin:0px;margin-top:4px;text-align:center;&quot;&gt;&lt;b&gt;Persona&lt;span style=&quot;white-space: pre;&quot;&gt;	&lt;/span&gt;&lt;/b&gt;&lt;/p&gt;&lt;hr size=&quot;1&quot;&gt;&lt;p style=&quot;margin:0px;margin-left:4px;&quot;&gt;+ nom: String&lt;/p&gt;&lt;p style=&quot;margin:0px;margin-left:4px;&quot;&gt;num_telefon: int&lt;/p&gt;&lt;p style=&quot;margin:0px;margin-left:4px;&quot;&gt;email: String&lt;/p&gt;&lt;hr size=&quot;1&quot;&gt;&lt;p style=&quot;margin:0px;margin-left:4px;&quot;&gt;+ imprimir_adreça(): String&lt;/p&gt;" style="verticalAlign=top;align=left;overflow=fill;fontSize=12;fontFamily=Helvetica;html=1;whiteSpace=wrap;" vertex="1" parent="1">
          <mxGeometry x="314" y="420" width="160" height="120" as="geometry" />
        </mxCell>
        <mxCell id="_vyH2A5g570IBIjJlSyy-2" value="&lt;p style=&quot;margin:0px;margin-top:4px;text-align:center;&quot;&gt;&lt;b&gt;Estudiant&lt;/b&gt;&lt;/p&gt;&lt;hr size=&quot;1&quot;&gt;&lt;p style=&quot;margin:0px;margin-left:4px;&quot;&gt;id_estudiant: int&lt;/p&gt;&lt;p style=&quot;margin:0px;margin-left:4px;&quot;&gt;nota_mitjana: double&lt;/p&gt;&lt;hr size=&quot;1&quot;&gt;&lt;p style=&quot;margin:0px;margin-left:4px;&quot;&gt;+ esPotMatricular?(): Boolean&lt;/p&gt;" style="verticalAlign=top;align=left;overflow=fill;fontSize=12;fontFamily=Helvetica;html=1;whiteSpace=wrap;" vertex="1" parent="1">
          <mxGeometry x="480" y="650" width="220" height="100" as="geometry" />
        </mxCell>
        <mxCell id="_vyH2A5g570IBIjJlSyy-4" value="&lt;p style=&quot;margin:0px;margin-top:4px;text-align:center;&quot;&gt;&lt;b&gt;Professor&lt;/b&gt;&lt;/p&gt;&lt;hr size=&quot;1&quot;&gt;&lt;p style=&quot;margin:0px;margin-left:4px;&quot;&gt;id_empleat: int&lt;/p&gt;&lt;p style=&quot;margin:0px;margin-left:4px;&quot;&gt;anys_serveis: int&lt;/p&gt;&lt;p style=&quot;margin:0px;margin-left:4px;&quot;&gt;sou: double&lt;/p&gt;&lt;hr size=&quot;1&quot;&gt;&lt;p style=&quot;margin:0px;margin-left:4px;&quot;&gt;&lt;br&gt;&lt;/p&gt;" style="verticalAlign=top;align=left;overflow=fill;fontSize=12;fontFamily=Helvetica;html=1;whiteSpace=wrap;" vertex="1" parent="1">
          <mxGeometry x="200" y="650" width="160" height="100" as="geometry" />
        </mxCell>
        <mxCell id="_vyH2A5g570IBIjJlSyy-5" value="&lt;p style=&quot;margin:0px;margin-top:4px;text-align:center;&quot;&gt;&lt;b&gt;Centre&lt;/b&gt;&lt;/p&gt;&lt;br&gt;&lt;hr size=&quot;1&quot;&gt;&lt;div style=&quot;height:2px;&quot;&gt;id_centre: int&lt;/div&gt;&lt;div style=&quot;height:2px;&quot;&gt;&lt;br&gt;&lt;/div&gt;&lt;div style=&quot;height:2px;&quot;&gt;&lt;br&gt;&lt;/div&gt;&lt;div style=&quot;height:2px;&quot;&gt;&lt;br&gt;&lt;/div&gt;&lt;div style=&quot;height:2px;&quot;&gt;&lt;br&gt;&lt;/div&gt;&lt;div style=&quot;height:2px;&quot;&gt;&lt;br&gt;&lt;/div&gt;&lt;div style=&quot;height:2px;&quot;&gt;&lt;br&gt;&lt;/div&gt;&lt;div style=&quot;height:2px;&quot;&gt;&lt;br&gt;&lt;/div&gt;&lt;div style=&quot;height:2px;&quot;&gt;&lt;br&gt;&lt;/div&gt;&lt;hr size=&quot;1&quot;&gt;&lt;div style=&quot;height:2px;&quot;&gt;&lt;br&gt;&lt;/div&gt;" style="verticalAlign=top;align=left;overflow=fill;fontSize=12;fontFamily=Helvetica;html=1;whiteSpace=wrap;" vertex="1" parent="1">
          <mxGeometry x="590" y="450" width="140" height="90" as="geometry" />
        </mxCell>
        <mxCell id="_vyH2A5g570IBIjJlSyy-8" value="" style="endArrow=open;endFill=1;endSize=12;html=1;rounded=0;exitX=1.019;exitY=0.575;exitDx=0;exitDy=0;entryX=0;entryY=0.5;entryDx=0;entryDy=0;exitPerimeter=0;" edge="1" parent="1" source="_vyH2A5g570IBIjJlSyy-1" target="_vyH2A5g570IBIjJlSyy-5">
          <mxGeometry width="160" relative="1" as="geometry">
            <mxPoint x="490" y="410" as="sourcePoint" />
            <mxPoint x="650" y="410" as="targetPoint" />
          </mxGeometry>
        </mxCell>
        <mxCell id="_vyH2A5g570IBIjJlSyy-11" value="Es" style="endArrow=block;endSize=16;endFill=0;html=1;rounded=0;entryX=0.5;entryY=1;entryDx=0;entryDy=0;" edge="1" parent="1" target="_vyH2A5g570IBIjJlSyy-1">
          <mxGeometry width="160" relative="1" as="geometry">
            <mxPoint x="220" y="650" as="sourcePoint" />
            <mxPoint x="380" y="650" as="targetPoint" />
          </mxGeometry>
        </mxCell>
        <mxCell id="_vyH2A5g570IBIjJlSyy-12" value="Es" style="endArrow=block;endSize=16;endFill=0;html=1;rounded=0;entryX=0.5;entryY=1;entryDx=0;entryDy=0;" edge="1" parent="1" target="_vyH2A5g570IBIjJlSyy-1">
          <mxGeometry width="160" relative="1" as="geometry">
            <mxPoint x="573" y="650" as="sourcePoint" />
            <mxPoint x="747" y="540" as="targetPoint" />
          </mxGeometry>
        </mxCell>
        <mxCell id="_vyH2A5g570IBIjJlSyy-14" value="forma part" style="text;align=center;fontStyle=1;verticalAlign=middle;spacingLeft=3;spacingRight=3;strokeColor=none;rotatable=0;points=[[0,0.5],[1,0.5]];portConstraint=eastwest;html=1;" vertex="1" parent="1">
          <mxGeometry x="490" y="460" width="80" height="26" as="geometry" />
        </mxCell>
        <mxCell id="_vyH2A5g570IBIjJlSyy-16" value="&lt;p style=&quot;margin:0px;margin-top:4px;text-align:center;&quot;&gt;&lt;b&gt;Parking_Centre&lt;/b&gt;&lt;/p&gt;&lt;hr size=&quot;1&quot;&gt;&lt;p style=&quot;margin:0px;margin-left:4px;&quot;&gt;id_parking: int&lt;/p&gt;&lt;p style=&quot;margin:0px;margin-left:4px;&quot;&gt;numero_ticket: int&lt;/p&gt;&lt;hr size=&quot;1&quot;&gt;&lt;p style=&quot;margin:0px;margin-left:4px;&quot;&gt;&lt;br&gt;&lt;/p&gt;" style="verticalAlign=top;align=left;overflow=fill;fontSize=12;fontFamily=Helvetica;html=1;whiteSpace=wrap;" vertex="1" parent="1">
          <mxGeometry x="314" y="150" width="160" height="95" as="geometry" />
        </mxCell>
        <mxCell id="_vyH2A5g570IBIjJlSyy-19" value="" style="endArrow=none;html=1;edgeStyle=orthogonalEdgeStyle;rounded=0;entryX=0.5;entryY=0;entryDx=0;entryDy=0;exitX=0.5;exitY=1;exitDx=0;exitDy=0;" edge="1" parent="1" source="_vyH2A5g570IBIjJlSyy-16" target="_vyH2A5g570IBIjJlSyy-1">
          <mxGeometry relative="1" as="geometry">
            <mxPoint x="394" y="250" as="sourcePoint" />
            <mxPoint x="268" y="530" as="targetPoint" />
          </mxGeometry>
        </mxCell>
        <mxCell id="_vyH2A5g570IBIjJlSyy-20" value="1" style="edgeLabel;resizable=0;html=1;align=left;verticalAlign=bottom;" connectable="0" vertex="1" parent="_vyH2A5g570IBIjJlSyy-19">
          <mxGeometry x="-1" relative="1" as="geometry" />
        </mxCell>
        <mxCell id="_vyH2A5g570IBIjJlSyy-21" value="1 : N" style="edgeLabel;resizable=0;html=1;align=right;verticalAlign=bottom;" connectable="0" vertex="1" parent="_vyH2A5g570IBIjJlSyy-19">
          <mxGeometry x="1" relative="1" as="geometry" />
        </mxCell>
        <mxCell id="_vyH2A5g570IBIjJlSyy-22" value="compraTickets" style="text;align=center;fontStyle=1;verticalAlign=middle;spacingLeft=3;spacingRight=3;strokeColor=none;rotatable=0;points=[[0,0.5],[1,0.5]];portConstraint=eastwest;html=1;" vertex="1" parent="1">
          <mxGeometry x="440" y="330" height="10" as="geometry" />
        </mxCell>
        <mxCell id="_vyH2A5g570IBIjJlSyy-35" value="esta_composat" style="text;align=center;fontStyle=1;verticalAlign=middle;spacingLeft=3;spacingRight=3;strokeColor=none;rotatable=0;points=[[0,0.5],[1,0.5]];portConstraint=eastwest;html=1;" vertex="1" parent="1">
          <mxGeometry x="690" y="314" width="30" height="26" as="geometry" />
        </mxCell>
        <mxCell id="_vyH2A5g570IBIjJlSyy-36" value="" style="endArrow=diamondThin;endFill=0;endSize=24;html=1;rounded=0;exitX=1;exitY=0.5;exitDx=0;exitDy=0;entryX=0.5;entryY=0;entryDx=0;entryDy=0;" edge="1" parent="1" source="_vyH2A5g570IBIjJlSyy-16" target="_vyH2A5g570IBIjJlSyy-5">
          <mxGeometry width="160" relative="1" as="geometry">
            <mxPoint x="474" y="197" as="sourcePoint" />
            <mxPoint x="610" y="420" as="targetPoint" />
            <Array as="points">
              <mxPoint x="660" y="200" />
            </Array>
          </mxGeometry>
        </mxCell>
        <mxCell id="_vyH2A5g570IBIjJlSyy-37" value="Title" style="text;align=center;fontStyle=1;verticalAlign=middle;spacingLeft=3;spacingRight=3;strokeColor=none;rotatable=0;points=[[0,0.5],[1,0.5]];portConstraint=eastwest;html=1;" vertex="1" parent="1">
          <mxGeometry x="480" y="170" width="30" height="26" as="geometry" />
        </mxCell>
        <mxCell id="_vyH2A5g570IBIjJlSyy-38" value="&lt;p style=&quot;margin:0px;margin-top:4px;text-align:center;&quot;&gt;compraTickets&lt;br&gt;&lt;/p&gt;&lt;hr size=&quot;1&quot;&gt;&lt;p style=&quot;margin:0px;margin-left:4px;&quot;&gt;id_ticket: int&lt;/p&gt;&lt;hr size=&quot;1&quot;&gt;&lt;p style=&quot;margin:0px;margin-left:4px;&quot;&gt;+ method(): Type&lt;/p&gt;" style="verticalAlign=top;align=left;overflow=fill;fontSize=12;fontFamily=Helvetica;html=1;whiteSpace=wrap;" vertex="1" parent="1">
          <mxGeometry x="110" y="282" width="160" height="90" as="geometry" />
        </mxCell>
        <mxCell id="_vyH2A5g570IBIjJlSyy-43" value="" style="line;strokeWidth=1;fillColor=none;align=left;verticalAlign=middle;spacingTop=-1;spacingLeft=3;spacingRight=3;rotatable=0;labelPosition=right;points=[];portConstraint=eastwest;strokeColor=inherit;dashed=1;" vertex="1" parent="1">
          <mxGeometry x="270" y="323" width="120" height="8" as="geometry" />
        </mxCell>
      </root>
    </mxGraphModel>
  </diagram>
</mxfile>
